<?xml version="1.0" standalone="no"?>
<!DOCTYPE svg PUBLIC "-//W3C//DTD SVG 20010904//EN"
 "http://www.w3.org/TR/2001/REC-SVG-20010904/DTD/svg10.dtd">
<svg    version="1.0" xmlns="http://www.w3.org/2000/svg"
 width="179.000000pt" height="176.000000pt" viewBox="0 0 179.000000 176.000000"
 preserveAspectRatio="xMidYMid meet">

<g transform="translate(0.000000,176.000000) scale(0.100000,-0.100000)"
fill="rgb(46 46 96)" stroke="none">
<path d="M1170 1640 l0 -80 135 0 c74 0 135 -3 135 -7 1 -5 -135 -141 -302
-304 -265 -260 -301 -299 -289 -313 7 -9 18 -13 24 -9 5 3 7 2 4 -4 -3 -5 11
-27 32 -47 38 -37 39 -38 65 -21 14 10 26 24 26 31 0 8 4 13 9 11 6 -1 131
118 278 266 148 147 272 267 276 267 4 0 7 -61 7 -135 l0 -135 80 0 80 0 0
280 0 280 -280 0 -280 0 0 -80z"/>
<path d="M130 840 l0 -710 710 0 710 0 0 390 0 390 -80 0 -80 0 -2 -307 -3
-308 -542 -3 -543 -2 0 550 0 550 315 0 315 0 0 80 0 80 -400 0 -400 0 0 -710z"/>
</g>
</svg>
